<?xml version="1.0" encoding="UTF-8" standalone="no"?>
<!-- Created with Inkscape (http://www.inkscape.org/) -->

<svg
   xmlns:dc="http://purl.org/dc/elements/1.1/"
   xmlns:cc="http://creativecommons.org/ns#"
   xmlns:rdf="http://www.w3.org/1999/02/22-rdf-syntax-ns#"
   xmlns:svg="http://www.w3.org/2000/svg"
   xmlns="http://www.w3.org/2000/svg"
   version="1.1"
   width="300"
   height="344.82388"
   id="svg12463">
  <defs
     id="defs12465" />
  <metadata
     id="metadata12468">
    <rdf:RDF>
      <cc:Work
         rdf:about="">
        <dc:format>image/svg+xml</dc:format>
        <dc:type
           rdf:resource="http://purl.org/dc/dcmitype/StillImage" />
        <cc:license
           rdf:resource="" />
        <dc:title></dc:title>
      </cc:Work>
    </rdf:RDF>
  </metadata>
  <g
     transform="translate(-216.43065,1.3639227)"
     id="layer1">
    <g
       transform="matrix(12.355014,0,0,12.355014,-5535.1171,-7389.6938)"
       id="g12331">
      <g
         transform="matrix(1.25,0,0,-1.25,478.04125,604.5978)"
         id="g686">
        <path
           d="m 0,0 -4.651,4.049 -4.05,-3.83 3.776,-3.995 -3.612,-3.612 4.105,-4.049 L 0,-7.388 4.597,-11.437 8.372,-7.278 5.034,-3.557 8.372,0.274 4.159,3.885 0,0 Z"
           id="path688"
           style="fill:#cd2b29;fill-opacity:1;fill-rule:nonzero;stroke:none" />
      </g>
      <g
         transform="matrix(1.25,0,0,-1.25,469.97712,625.75468)"
         id="g690"
         style="fill:#000000">
        <path
           d="M 0,0 -0.838,0 -0.952,0.258 -1.15,0.084 c -0.179,-0.138 -0.431,-0.21 -0.736,-0.21 -1.03,0 -1.677,0.809 -1.677,2.09 0,1.317 0.713,2.108 1.904,2.108 0.425,0 0.779,-0.114 1.066,-0.342 0.126,-0.095 0.228,-0.209 0.311,-0.335 0.12,-0.185 0.174,-0.323 0.258,-0.676 L -1.258,2.563 c -0.083,0.311 -0.209,0.443 -0.419,0.443 -0.275,0 -0.437,-0.431 -0.437,-1.174 0,-0.598 0.15,-0.94 0.431,-0.94 0.228,0 0.348,0.15 0.377,0.473 l -0.514,0 0,0.94 1.82,0 L 0,0"
           id="path692"
           style="fill:#000000;fill-opacity:1;fill-rule:nonzero;stroke:none" />
      </g>
      <g
         transform="matrix(1.25,0,0,-1.25,475.26887,625.75468)"
         id="g694"
         style="fill:#000000">
        <path
           d="m 0,0 -1.407,0 -0.216,0.683 -1.012,0 L -2.808,0 -3.97,0 l 1.144,3.994 1.503,0 L 0,0 m -2.407,1.665 0.497,0 L -2.18,2.611 -2.407,1.665 Z"
           id="path696"
           style="fill:#000000;fill-opacity:1;fill-rule:nonzero;stroke:none" />
      </g>
      <g
         transform="matrix(1.25,0,0,-1.25,480.99476,625.75468)"
         id="g698"
         style="fill:#000000">
        <path
           d="m 0,0 -1.311,0 0,2.221 L -1.904,0 l -0.82,0 -0.563,2.168 0,-2.168 -1.024,0 0,3.994 1.73,0 0.443,-1.569 0.42,1.569 L 0,3.994 0,0 Z"
           id="path700"
           style="fill:#000000;fill-opacity:1;fill-rule:nonzero;stroke:none" />
      </g>
      <g
         transform="matrix(1.25,0,0,-1.25,485.29875,622.07956)"
         id="g702"
         style="fill:#000000">
        <path
           d="m 0,0 -1.503,0 0,-0.401 1.21,0 0,-1.024 -1.21,0 0,-0.443 1.557,0 0,-1.072 -2.958,0 0,3.994 L 0,1.054 0,0 Z"
           id="path704"
           style="fill:#000000;fill-opacity:1;fill-rule:nonzero;stroke:none" />
      </g>
      <g
         transform="matrix(1.25,0,0,-1.25,488.89126,622.22168)"
         id="g706"
         style="fill:#000000">
        <path
           d="m 0,0 c -0.377,0.204 -0.581,0.269 -0.838,0.269 -0.204,0 -0.347,-0.078 -0.347,-0.191 0,-0.09 0.066,-0.144 0.227,-0.174 l 0.288,-0.048 0.257,-0.048 c 0.21,-0.035 0.509,-0.173 0.713,-0.329 0.281,-0.216 0.425,-0.527 0.425,-0.922 0,-0.916 -0.683,-1.479 -1.796,-1.479 -0.318,0 -0.605,0.042 -0.857,0.125 -0.281,0.09 -0.467,0.216 -0.838,0.546 l 0.772,0.712 c 0.234,-0.162 0.348,-0.228 0.497,-0.281 0.15,-0.054 0.342,-0.096 0.467,-0.096 0.198,0 0.306,0.066 0.306,0.192 0,0.125 -0.15,0.209 -0.443,0.239 -0.934,0.096 -1.515,0.593 -1.515,1.299 0,0.892 0.718,1.467 1.838,1.467 0.425,0 0.802,-0.077 1.108,-0.227 C 0.419,0.976 0.521,0.898 0.731,0.695 L 0,0"
           id="path708"
           style="fill:#000000;fill-opacity:1;fill-rule:nonzero;stroke:none" />
      </g>
      <g
         transform="matrix(1.25,0,0,-1.25,481.04175,609.14005)"
         id="g710"
         style="fill:#000000">
        <path
           d="m 0,0 c 0,-1.494 -1.211,-2.705 -2.705,-2.705 -1.494,0 -2.705,1.211 -2.705,2.705 0,1.494 1.211,2.705 2.705,2.705 C -1.211,2.705 0,1.494 0,0"
           id="path712"
           style="fill:#000000;fill-opacity:1;fill-rule:nonzero;stroke:none" />
      </g>
      <path
         d="m 484.96149,609.14005 4.79375,-4.79375 -6.345,-6.34375 -0.705,0.705 -5.045,5.045 -5.75,-5.75 -6.345,6.34375 c 0,0 3.76875,3.7675 4.79375,4.79375 -1.025,1.025 -4.79375,4.7925 -4.79375,4.7925 l 6.345,6.345 5.75,-5.75 5.75,5.75 6.345,-6.345 c 0,0 -3.7675,-3.7675 -4.79375,-4.7925 m -1.55125,8.3175 c -0.9525,-0.9525 -3.36125,-3.3625 -3.79625,-3.79625 l 0,-1.0775 c -0.57625,0.32875 -1.2425,0.515 -1.95375,0.515 -0.71,0 -1.3775,-0.18625 -1.95375,-0.515 l 0,1.0775 c -0.435,0.43375 -2.84375,2.84375 -3.79625,3.79625 -0.86375,-0.8625 -2.66125,-2.66125 -3.525,-3.525 1.02625,-1.025 4.79375,-4.7925 4.79375,-4.7925 l -4.79375,-4.79375 c 0.86375,-0.8625 2.66125,-2.66125 3.525,-3.52375 0.9525,0.9525 3.36125,3.3625 3.79625,3.79625 l 0,1.07625 c 0.57625,-0.3275 1.24375,-0.515 1.95375,-0.515 0.71125,0 1.3775,0.1875 1.95375,0.515 l 0,-1.07625 c 0.435,-0.43375 2.84375,-2.84375 3.79625,-3.79625 0.86375,0.8625 2.66125,2.66125 3.525,3.52375 -1.02625,1.02625 -4.79375,4.79375 -4.79375,4.79375 0,0 3.7675,3.7675 4.79375,4.7925 -0.86375,0.86375 -2.66125,2.6625 -3.525,3.525"
         id="path716"
         style="fill:#000000;fill-opacity:1;fill-rule:nonzero;stroke:none" />
      <g
         transform="matrix(1.25,0,0,-1.25,477.66037,606.3048)"
         id="g718">
        <path
           d="m 0,0 c -1.265,0 -2.255,-0.996 -2.255,-2.268 0,-1.272 0.99,-2.269 2.255,-2.269 1.264,0 2.255,0.997 2.255,2.269 C 2.255,-0.996 1.264,0 0,0 m 1.056,-3.322 c 0.117,0.315 0.189,0.638 0.203,0.904 l 0.68,0 C 1.911,-2.849 1.755,-3.24 1.486,-3.554 1.371,-3.477 1.227,-3.4 1.056,-3.322 m -0.907,0.266 0,0.638 0.811,0 C 0.943,-2.669 0.884,-2.937 0.784,-3.217 0.563,-3.129 0.347,-3.074 0.149,-3.056 m 1.122,-0.71 C 1.093,-3.919 0.893,-4.033 0.684,-4.104 c 0.102,0.158 0.19,0.332 0.263,0.519 0.12,-0.054 0.228,-0.115 0.324,-0.181 m -0.311,1.648 -0.811,0 0,0.637 c 0.198,0.018 0.414,0.073 0.635,0.162 0.101,-0.276 0.159,-0.544 0.176,-0.799 M 0.953,-0.946 C 0.877,-0.763 0.785,-0.585 0.685,-0.429 0.896,-0.503 1.094,-0.619 1.271,-0.77 1.177,-0.833 1.07,-0.893 0.953,-0.946 m -0.804,-0.228 0,0.865 0.119,-0.013 C 0.439,-0.561 0.579,-0.808 0.687,-1.057 0.507,-1.118 0.321,-1.158 0.149,-1.174 m 0,-3.053 0,0.864 C 0.324,-3.378 0.506,-3.416 0.681,-3.474 0.568,-3.746 0.426,-4 0.268,-4.214 L 0.149,-4.227 m 1.79,2.109 -0.68,0 c -0.019,0.268 -0.09,0.584 -0.204,0.904 0.175,0.078 0.317,0.154 0.431,0.232 0.269,-0.315 0.425,-0.705 0.453,-1.136 m -3.878,0 c 0.028,0.43 0.183,0.821 0.453,1.136 0.114,-0.077 0.255,-0.154 0.43,-0.232 -0.113,-0.321 -0.184,-0.637 -0.203,-0.904 L -1.939,-2.118 z m 0.883,-1.204 c -0.172,-0.078 -0.316,-0.155 -0.43,-0.232 -0.27,0.315 -0.425,0.705 -0.453,1.136 l 0.68,0 c 0.013,-0.266 0.085,-0.589 0.203,-0.904 m 0.096,0.904 0.81,0 0,-0.638 c -0.197,-0.018 -0.413,-0.073 -0.634,-0.161 -0.1,0.28 -0.159,0.548 -0.176,0.799 m 0.013,-1.167 c 0.071,-0.185 0.161,-0.361 0.263,-0.519 -0.209,0.071 -0.409,0.185 -0.588,0.338 0.097,0.067 0.205,0.127 0.325,0.181 m 0.797,0.222 0,-0.864 -0.118,0.013 c -0.159,0.213 -0.3,0.468 -0.413,0.74 0.175,0.058 0.356,0.096 0.531,0.111 m 0,1.882 0,-0.637 -0.81,0 c 0.017,0.255 0.076,0.523 0.175,0.799 0.221,-0.089 0.438,-0.144 0.635,-0.162 m -1.122,0.711 c 0.179,0.153 0.376,0.267 0.587,0.341 -0.1,-0.156 -0.193,-0.334 -0.268,-0.517 -0.117,0.053 -0.224,0.112 -0.319,0.176 m 1.122,0.461 0,-0.865 c -0.171,0.016 -0.357,0.056 -0.537,0.117 0.107,0.249 0.247,0.495 0.419,0.735 l 0.118,0.013"
           id="path720"
           style="fill:#ffffff;fill-opacity:1;fill-rule:nonzero;stroke:none" />
      </g>
    </g>
  </g>
</svg>
